<svg width="30" height="25" viewBox="0 0 30 25" fill="none" xmlns="http://www.w3.org/2000/svg">
<path d="M5.32954 9.21053C5.68291 9.21053 6.02181 9.34915 6.27168 9.59591C6.52155 9.84267 6.66193 10.1773 6.66193 10.5263C8.7553 10.5233 10.7883 11.2188 12.4312 12.5H15.3224C17.0985 12.5 18.6934 13.2632 19.7913 14.4737H23.9829C25.2424 14.4733 26.4761 14.8256 27.5411 15.4895C28.6061 16.1535 29.4587 17.102 30 18.225C26.8489 22.3316 21.7472 25 15.9886 25C12.2713 25 9.12684 24.2066 6.58199 22.8184C6.48878 23.0724 6.31849 23.2919 6.09435 23.4468C5.87022 23.6018 5.60314 23.6847 5.32954 23.6842H1.33239C0.979015 23.6842 0.640117 23.5456 0.390247 23.2988C0.140376 23.0521 0 22.7174 0 22.3684V10.5263C0 10.1773 0.140376 9.84267 0.390247 9.59591C0.640117 9.34915 0.979015 9.21053 1.33239 9.21053H5.32954ZM6.66326 13.1579L6.66193 19.7658L6.72189 19.8079C9.11352 21.4658 12.2286 22.3684 15.9886 22.3684C19.9911 22.3684 23.7151 20.8474 26.4279 18.25L26.6051 18.075L26.4452 17.9434C25.816 17.4568 25.0534 17.168 24.2561 17.1145L23.9829 17.1053H21.1703C21.2662 17.5289 21.3182 17.9684 21.3182 18.4211V19.7368H9.3267V17.1053L18.3736 17.1039L18.3283 17.0013C18.073 16.4744 17.6802 16.0241 17.1903 15.6967C16.7005 15.3692 16.1312 15.1765 15.5409 15.1382L15.3224 15.1316H11.4185C10.7994 14.5062 10.0599 14.0095 9.24346 13.6705C8.42704 13.3316 7.55022 13.1573 6.66459 13.1579H6.66326ZM3.99716 11.8421H2.66477V21.0526H3.99716V11.8421ZM22.6506 3.94737C23.7107 3.94737 24.7274 4.36325 25.477 5.10353C26.2266 5.8438 26.6477 6.84783 26.6477 7.89474C26.6477 8.94164 26.2266 9.94567 25.477 10.6859C24.7274 11.4262 23.7107 11.8421 22.6506 11.8421C21.5904 11.8421 20.5738 11.4262 19.8241 10.6859C19.0745 9.94567 18.6534 8.94164 18.6534 7.89474C18.6534 6.84783 19.0745 5.8438 19.8241 5.10353C20.5738 4.36325 21.5904 3.94737 22.6506 3.94737ZM22.6506 6.57895C22.2972 6.57895 21.9583 6.71757 21.7084 6.96433C21.4585 7.21109 21.3182 7.54577 21.3182 7.89474C21.3182 8.24371 21.4585 8.57838 21.7084 8.82514C21.9583 9.0719 22.2972 9.21053 22.6506 9.21053C23.0039 9.21053 23.3428 9.0719 23.5927 8.82514C23.8426 8.57838 23.9829 8.24371 23.9829 7.89474C23.9829 7.54577 23.8426 7.21109 23.5927 6.96433C23.3428 6.71757 23.0039 6.57895 22.6506 6.57895ZM13.3239 0C14.384 0 15.4007 0.415882 16.1503 1.15616C16.8999 1.89643 17.321 2.90046 17.321 3.94737C17.321 4.99428 16.8999 5.9983 16.1503 6.73858C15.4007 7.47885 14.384 7.89474 13.3239 7.89474C12.2637 7.89474 11.2471 7.47885 10.4974 6.73858C9.74783 5.9983 9.3267 4.99428 9.3267 3.94737C9.3267 2.90046 9.74783 1.89643 10.4974 1.15616C11.2471 0.415882 12.2637 0 13.3239 0V0ZM13.3239 2.63158C12.9705 2.63158 12.6316 2.77021 12.3817 3.01696C12.1318 3.26372 11.9915 3.5984 11.9915 3.94737C11.9915 4.29634 12.1318 4.63101 12.3817 4.87777C12.6316 5.12453 12.9705 5.26316 13.3239 5.26316C13.6772 5.26316 14.0161 5.12453 14.266 4.87777C14.5159 4.63101 14.6562 4.29634 14.6562 3.94737C14.6562 3.5984 14.5159 3.26372 14.266 3.01696C14.0161 2.77021 13.6772 2.63158 13.3239 2.63158V2.63158Z" fill="#00054A"/>
</svg>
