<svg width="31" height="31" viewBox="0 0 31 31" fill="none" xmlns="http://www.w3.org/2000/svg">
<path d="M15.5 13.95C17.5554 13.95 19.5267 14.7665 20.9801 16.2199C22.4335 17.6733 23.25 19.6446 23.25 21.7V31H7.75V21.7C7.75 19.6446 8.56652 17.6733 10.0199 16.2199C11.4733 14.7665 13.4446 13.95 15.5 13.95ZM5.0964 18.6093C4.84973 19.4413 4.70402 20.3 4.6624 21.1668L4.65 21.7V31H1.41541e-07V24.025C-0.000305051 22.6882 0.492944 21.3984 1.38513 20.403C2.27732 19.4075 3.50563 18.7765 4.83445 18.631L5.0964 18.6093ZM25.9036 18.6093C27.283 18.6934 28.5783 19.3005 29.5253 20.3069C30.4724 21.3133 30.9998 22.6431 31 24.025V31H26.35V21.7C26.35 20.6258 26.195 19.5889 25.9036 18.6093ZM5.425 9.3C6.45271 9.3 7.43834 9.70826 8.16504 10.435C8.89174 11.1617 9.3 12.1473 9.3 13.175C9.3 14.2027 8.89174 15.1883 8.16504 15.915C7.43834 16.6417 6.45271 17.05 5.425 17.05C4.39729 17.05 3.41166 16.6417 2.68496 15.915C1.95826 15.1883 1.55 14.2027 1.55 13.175C1.55 12.1473 1.95826 11.1617 2.68496 10.435C3.41166 9.70826 4.39729 9.3 5.425 9.3ZM25.575 9.3C26.6027 9.3 27.5883 9.70826 28.315 10.435C29.0417 11.1617 29.45 12.1473 29.45 13.175C29.45 14.2027 29.0417 15.1883 28.315 15.915C27.5883 16.6417 26.6027 17.05 25.575 17.05C24.5473 17.05 23.5617 16.6417 22.835 15.915C22.1083 15.1883 21.7 14.2027 21.7 13.175C21.7 12.1473 22.1083 11.1617 22.835 10.435C23.5617 9.70826 24.5473 9.3 25.575 9.3ZM15.5 0C17.1443 0 18.7213 0.653212 19.8841 1.81594C21.0468 2.97866 21.7 4.55566 21.7 6.2C21.7 7.84434 21.0468 9.42134 19.8841 10.5841C18.7213 11.7468 17.1443 12.4 15.5 12.4C13.8557 12.4 12.2787 11.7468 11.1159 10.5841C9.95321 9.42134 9.3 7.84434 9.3 6.2C9.3 4.55566 9.95321 2.97866 11.1159 1.81594C12.2787 0.653212 13.8557 0 15.5 0Z" fill="#00054A"/>
</svg>
