<svg width="32" height="32" viewBox="0 0 32 32" fill="none" xmlns="http://www.w3.org/2000/svg">
<path d="M16 31C19.9782 31 23.7936 29.4196 26.6066 26.6066C29.4196 23.7936 31 19.9782 31 16C31 12.0218 29.4196 8.20644 26.6066 5.3934C23.7936 2.58035 19.9782 1 16 1C15.694 1 15.4005 1.12157 15.1841 1.33795C14.9677 1.55434 14.8462 1.84783 14.8462 2.15385V5.61538C14.8462 5.9214 14.9677 6.21489 15.1841 6.43128C15.4005 6.64766 15.694 6.76923 16 6.76923C16.306 6.76923 16.5995 6.64766 16.8159 6.43128C17.0323 6.21489 17.1538 5.9214 17.1538 5.61538V3.3595C19.5558 3.57892 21.8454 4.47818 23.7547 5.95195C25.6639 7.42572 27.1138 9.41299 27.9343 11.681C28.7549 13.949 28.9123 16.4039 28.388 18.7582C27.8637 21.1124 26.6795 23.2685 24.974 24.974C23.2685 26.6795 21.1124 27.8637 18.7582 28.388C16.4039 28.9123 13.949 28.7549 11.681 27.9343C9.41299 27.1138 7.42572 25.6639 5.95195 23.7547C4.47818 21.8454 3.57892 19.5558 3.3595 17.1538H5.61538C5.9214 17.1538 6.21489 17.0323 6.43128 16.8159C6.64766 16.5995 6.76923 16.306 6.76923 16C6.76923 15.694 6.64766 15.4005 6.43128 15.1841C6.21489 14.9677 5.9214 14.8462 5.61538 14.8462H2.15385C1.84783 14.8462 1.55434 14.9677 1.33795 15.1841C1.12157 15.4005 1 15.694 1 16C1.00449 19.9769 2.58628 23.7896 5.39836 26.6016C8.21043 29.4137 12.0231 30.9955 16 31Z" fill="#00054A" stroke="#00054A"/>
<path d="M13.7774 15.4101C13.7231 15.6022 13.6942 15.8005 13.6915 16.0001C13.6915 16.4566 13.8268 16.9027 14.0804 17.2822C14.334 17.6617 14.6944 17.9575 15.1161 18.1322C15.5377 18.3068 16.0017 18.3525 16.4494 18.2635C16.897 18.1745 17.3082 17.9547 17.631 17.6319C17.9537 17.3092 18.1735 16.898 18.2625 16.4504C18.3516 16.0027 18.3059 15.5387 18.1312 15.117C17.9565 14.6954 17.6608 14.3349 17.2813 14.0814C16.9018 13.8278 16.4556 13.6925 15.9992 13.6925C15.7996 13.6952 15.6012 13.7241 15.4091 13.7785L7.00723 5.37667C6.9008 5.26647 6.77347 5.17856 6.6327 5.11809C6.49193 5.05762 6.34052 5.02579 6.18731 5.02446C6.0341 5.02313 5.88217 5.05232 5.74036 5.11034C5.59856 5.16835 5.46973 5.25403 5.36139 5.36237C5.25305 5.47071 5.16738 5.59954 5.10936 5.74134C5.05134 5.88314 5.02215 6.03508 5.02348 6.18829C5.02481 6.3415 5.05664 6.4929 5.11711 6.63368C5.17759 6.77445 5.26549 6.90177 5.37569 7.00821L13.7774 15.4101Z" fill="#00054A" stroke="#00054A"/>
<path d="M21.7695 16C21.7695 16.3061 21.8911 16.5995 22.1075 16.8159C22.3239 17.0323 22.6174 17.1539 22.9234 17.1539H25.2311C25.5371 17.1539 25.8306 17.0323 26.047 16.8159C26.2634 16.5995 26.3849 16.3061 26.3849 16C26.3849 15.694 26.2634 15.4005 26.047 15.1841C25.8306 14.9678 25.5371 14.8462 25.2311 14.8462H22.9234C22.6174 14.8462 22.3239 14.9678 22.1075 15.1841C21.8911 15.4005 21.7695 15.694 21.7695 16Z" fill="#00054A" stroke="#00054A"/>
<path d="M21.711 8.65665L20.0785 10.2885C19.9713 10.3957 19.8863 10.5229 19.8282 10.6629C19.7702 10.8029 19.7403 10.9529 19.7402 11.1045C19.7402 11.256 19.77 11.4061 19.8279 11.5462C19.8859 11.6862 19.9708 11.8135 20.078 11.9207C20.1851 12.0279 20.3123 12.1129 20.4523 12.171C20.5923 12.229 20.7424 12.2589 20.8939 12.259C21.0455 12.259 21.1955 12.2292 21.3356 12.1713C21.4756 12.1133 21.6029 12.0284 21.7101 11.9212L23.3429 10.2897C23.4501 10.1825 23.5352 10.0553 23.5933 9.91529C23.6513 9.77526 23.6812 9.62517 23.6813 9.47358C23.6813 9.32199 23.6515 9.17188 23.5936 9.03181C23.5356 8.89174 23.4506 8.76446 23.3435 8.65723C23.2363 8.55 23.1091 8.46493 22.9691 8.40687C22.829 8.34881 22.679 8.3189 22.5274 8.31885C22.3758 8.31879 22.2257 8.3486 22.0856 8.40656C21.9455 8.46452 21.8182 8.5495 21.711 8.65665Z" fill="#00054A" stroke="#00054A"/>
</svg>
