<svg width="31" height="23" viewBox="0 0 31 23" fill="none" xmlns="http://www.w3.org/2000/svg">
<path d="M11.2234 18.6802C11.0559 19.879 10.4698 20.976 9.57291 21.7695C8.67597 22.5631 7.52838 23 6.34091 23C5.15344 23 4.00584 22.5631 3.10891 21.7695C2.21197 20.976 1.62592 19.879 1.45841 18.6802H0V1.43694C0 1.05584 0.148457 0.690348 0.412713 0.42087C0.676969 0.151391 1.03538 0 1.40909 0H21.1364C21.5101 0 21.8685 0.151391 22.1327 0.42087C22.397 0.690348 22.5455 1.05584 22.5455 1.43694V4.31081H26.7727L31 10.139V18.6802H28.1325C27.965 19.879 27.3789 20.976 26.482 21.7695C25.5851 22.5631 24.4375 23 23.25 23C22.0625 23 20.9149 22.5631 20.018 21.7695C19.1211 20.976 18.535 19.879 18.3675 18.6802H11.2234ZM19.7273 2.87387H2.81818V14.4412C3.37416 13.8624 4.05903 13.4292 4.81452 13.1783C5.57 12.9275 6.37373 12.8665 7.1573 13.0005C7.94088 13.1346 8.68109 13.4597 9.31495 13.9482C9.94881 14.4367 10.4575 15.0742 10.7979 15.8063H18.793C19.0298 15.2991 19.3468 14.8378 19.7273 14.4412V2.87387ZM22.5455 11.4955H28.1818V11.086L25.3524 7.18469H22.5455V11.4955ZM23.25 20.1171C23.8108 20.1171 24.3485 19.89 24.7451 19.4856C25.1416 19.0813 25.3643 18.5328 25.3643 17.961C25.3643 17.3892 25.1416 16.8407 24.7451 16.4364C24.3485 16.032 23.8108 15.8049 23.25 15.8049C22.6892 15.8049 22.1514 16.032 21.7549 16.4364C21.3584 16.8407 21.1357 17.3892 21.1357 17.961C21.1357 18.5328 21.3584 19.0813 21.7549 19.4856C22.1514 19.89 22.6892 20.1171 23.25 20.1171V20.1171ZM8.45455 17.9617C8.45455 17.6787 8.39987 17.3984 8.29365 17.1369C8.18743 16.8754 8.03175 16.6378 7.83548 16.4376C7.63921 16.2375 7.4062 16.0787 7.14976 15.9704C6.89332 15.8621 6.61848 15.8063 6.34091 15.8063C6.06334 15.8063 5.78849 15.8621 5.53206 15.9704C5.27562 16.0787 5.04261 16.2375 4.84634 16.4376C4.65007 16.6378 4.49438 16.8754 4.38816 17.1369C4.28194 17.3984 4.22727 17.6787 4.22727 17.9617C4.22727 18.5334 4.44996 19.0816 4.84634 19.4858C5.24273 19.89 5.78034 20.1171 6.34091 20.1171C6.90148 20.1171 7.43909 19.89 7.83548 19.4858C8.23186 19.0816 8.45455 18.5334 8.45455 17.9617V17.9617Z" fill="#00054A"/>
</svg>
