<svg width="30" height="30" viewBox="0 0 30 30" fill="none" xmlns="http://www.w3.org/2000/svg">
<path d="M20 0.375C20.7594 0.375 21.375 0.990608 21.375 1.75V3.12363L28.25 3.125V11.375L25.4725 11.3736L29.2768 21.8185C29.5019 22.419 29.625 23.0695 29.625 23.7486C29.625 26.7862 27.1626 29.2486 24.125 29.2486C21.5631 29.2486 19.4103 27.497 18.7989 25.1261L12.9515 25.126C12.3405 27.4977 10.1874 29.25 7.625 29.25C4.9508 29.25 2.72237 27.3415 2.22748 24.8122C1.34892 24.3537 0.75 23.4343 0.75 22.375V4.5C0.75 3.74061 1.36561 3.125 2.125 3.125H11.75C12.5094 3.125 13.125 3.74061 13.125 4.5V15.5C13.125 16.2051 13.6558 16.7863 14.3396 16.8657L14.5 16.875H17.25C17.9551 16.875 18.5363 16.3442 18.6157 15.6604L18.625 15.5V3.125H14.5V0.375H20ZM7.625 21C6.10622 21 4.875 22.2312 4.875 23.75C4.875 25.2688 6.10622 26.5 7.625 26.5C9.14378 26.5 10.375 25.2688 10.375 23.75C10.375 22.2312 9.14378 21 7.625 21ZM24.125 20.9986C22.6062 20.9986 21.375 22.2299 21.375 23.7486C21.375 25.2674 22.6062 26.4986 24.125 26.4986C25.6438 26.4986 26.875 25.2674 26.875 23.7486C26.875 22.2299 25.6438 20.9986 24.125 20.9986ZM22.5465 11.3736H21.375V15.5C21.375 17.7782 19.5282 19.625 17.25 19.625H14.5C12.7044 19.625 11.1768 18.4777 10.6102 16.8762L3.49992 16.875V20.1121C4.50772 18.9702 5.98226 18.25 7.625 18.25C10.1879 18.25 12.3414 20.003 12.9518 22.3754H18.7978C19.4078 20.0023 21.5616 18.2486 24.125 18.2486C24.4513 18.2486 24.7709 18.277 25.0815 18.3315L22.5465 11.3736ZM10.375 10H3.5V14.125H10.375V10ZM25.5 5.875H21.375V8.625H25.5V5.875ZM10.375 5.875H3.5V7.25H10.375V5.875Z" fill="#00054A"/>
</svg>
