<svg width="30" height="30" viewBox="0 0 30 30" fill="none" xmlns="http://www.w3.org/2000/svg">
<path d="M13.2456 10.7653L14.6255 9.38544C14.7247 9.28621 14.8593 9.23047 14.9997 9.23047C15.1401 9.23047 15.2747 9.28621 15.3739 9.38544L16.7538 10.7653H18.7048C18.8452 10.7653 18.9798 10.8211 19.0791 10.9203C19.1783 11.0196 19.2341 11.1542 19.2341 11.2946V13.2456L20.614 14.6255C20.7132 14.7247 20.7689 14.8593 20.7689 14.9997C20.7689 15.1401 20.7132 15.2747 20.614 15.3739L19.2341 16.7538V18.7048C19.2341 18.8452 19.1783 18.9798 19.0791 19.0791C18.9798 19.1783 18.8452 19.2341 18.7048 19.2341H16.7538L15.3739 20.614C15.2747 20.7132 15.1401 20.7689 14.9997 20.7689C14.8593 20.7689 14.7247 20.7132 14.6255 20.614L13.2456 19.2341H11.2946C11.1542 19.2341 11.0196 19.1783 10.9203 19.0791C10.8211 18.9798 10.7653 18.8452 10.7653 18.7048V16.7538L9.38544 15.3739C9.28621 15.2747 9.23047 15.1401 9.23047 14.9997C9.23047 14.8593 9.28621 14.7247 9.38544 14.6255L10.7653 13.2456V11.2946C10.7653 11.1542 10.8211 11.0196 10.9203 10.9203C11.0196 10.8211 11.1542 10.7653 11.2946 10.7653H13.2456ZM14.9997 16.5876C15.4208 16.5876 15.8247 16.4203 16.1225 16.1225C16.4203 15.8247 16.5876 15.4208 16.5876 14.9997C16.5876 14.5786 16.4203 14.1747 16.1225 13.8769C15.8247 13.5791 15.4208 13.4118 14.9997 13.4118C14.5786 13.4118 14.1747 13.5791 13.8769 13.8769C13.5791 14.1747 13.4118 14.5786 13.4118 14.9997C13.4118 15.4208 13.5791 15.8247 13.8769 16.1225C14.1747 16.4203 14.5786 16.5876 14.9997 16.5876V16.5876Z" fill="#00054A"/>
<path d="M5.1945 3.64951C7.91634 1.291 11.3985 -0.00500979 15 1.4554e-05C23.2845 1.4554e-05 30 6.71551 30 15C30 18.204 28.995 21.174 27.285 23.61L22.5 15H27C27.0002 12.6474 26.3089 10.3467 25.012 8.38389C23.7151 6.42107 21.8699 4.88275 19.7058 3.9602C17.5416 3.03765 15.1541 2.77156 12.8399 3.19504C10.5258 3.61851 8.38718 4.71286 6.69 6.34201L5.1945 3.64951ZM24.8055 26.3505C22.0837 28.709 18.6015 30.005 15 30C6.7155 30 0 23.2845 0 15C0 11.796 1.005 8.82601 2.715 6.39001L7.5 15H3C2.99981 17.3526 3.69113 19.6533 4.988 21.6161C6.28488 23.5789 8.1301 25.1173 10.2942 26.0398C12.4584 26.9624 14.8459 27.2284 17.1601 26.805C19.4742 26.3815 21.6128 25.2871 23.31 23.658L24.8055 26.3505Z" fill="#00054A"/>
</svg>
