<svg width="30" height="32" viewBox="0 0 30 32" fill="none" xmlns="http://www.w3.org/2000/svg">
<path d="M26.6667 28.6669V13.3319L15 4.12855L3.33333 13.3319V28.6669H26.6667ZM30 30.3336C30 30.7756 29.8244 31.1995 29.5118 31.5121C29.1993 31.8246 28.7754 32.0002 28.3333 32.0002H1.66667C1.22464 32.0002 0.800716 31.8246 0.488155 31.5121C0.175595 31.1995 1.3211e-07 30.7756 1.3211e-07 30.3336V12.5236C-0.000100096 12.2718 0.0568319 12.0233 0.166522 11.7967C0.276212 11.5701 0.43581 11.3713 0.633334 11.2152L13.9667 0.696887C14.2609 0.464372 14.625 0.337891 15 0.337891C15.375 0.337891 15.7391 0.464372 16.0333 0.696887L29.3667 11.2136C29.5644 11.3698 29.7241 11.5689 29.8338 11.7958C29.9435 12.0227 30.0004 12.2715 30 12.5236V30.3336ZM6.66667 17.0002H10C10 18.3263 10.5268 19.5981 11.4645 20.5358C12.4021 21.4734 13.6739 22.0002 15 22.0002C16.3261 22.0002 17.5979 21.4734 18.5355 20.5358C19.4732 19.5981 20 18.3263 20 17.0002H23.3333C23.3333 19.2104 22.4554 21.33 20.8926 22.8928C19.3298 24.4556 17.2101 25.3336 15 25.3336C12.7899 25.3336 10.6702 24.4556 9.10744 22.8928C7.54464 21.33 6.66667 19.2104 6.66667 17.0002Z" fill="#00054A"/>
</svg>
