<svg width="16" height="19" viewBox="0 0 16 19" fill="none" xmlns="http://www.w3.org/2000/svg">
<path d="M13.3333 6.22222H15.1111C15.3469 6.22222 15.573 6.31587 15.7397 6.48257C15.9064 6.64927 16 6.87536 16 7.11111V17.7778C16 18.0135 15.9064 18.2396 15.7397 18.4063C15.573 18.573 15.3469 18.6667 15.1111 18.6667H0.888889C0.653141 18.6667 0.427048 18.573 0.260349 18.4063C0.0936505 18.2396 0 18.0135 0 17.7778V7.11111C0 6.87536 0.0936505 6.64927 0.260349 6.48257C0.427048 6.31587 0.653141 6.22222 0.888889 6.22222H2.66667V5.33333C2.66667 3.91885 3.22857 2.56229 4.22876 1.5621C5.22896 0.561903 6.58551 0 8 0C9.41449 0 10.771 0.561903 11.7712 1.5621C12.7714 2.56229 13.3333 3.91885 13.3333 5.33333V6.22222ZM1.77778 8V16.8889H14.2222V8H1.77778ZM7.11111 11.5556H8.88889V13.3333H7.11111V11.5556ZM3.55556 11.5556H5.33333V13.3333H3.55556V11.5556ZM10.6667 11.5556H12.4444V13.3333H10.6667V11.5556ZM11.5556 6.22222V5.33333C11.5556 4.39034 11.181 3.48597 10.5142 2.81918C9.84736 2.15238 8.94299 1.77778 8 1.77778C7.05701 1.77778 6.15264 2.15238 5.48584 2.81918C4.81905 3.48597 4.44444 4.39034 4.44444 5.33333V6.22222H11.5556Z" fill="#CFCFCF"/>
</svg>
