<svg width="31" height="34" viewBox="0 0 31 34" fill="none" xmlns="http://www.w3.org/2000/svg">
<path d="M30.6156 1.65938V31.7959C30.6121 32.2352 30.4359 32.6555 30.1251 32.966C29.8143 33.2765 29.3939 33.4522 28.9546 33.4553H2.16691C1.72666 33.4553 1.30442 33.2805 0.992962 32.9694C0.681502 32.6582 0.506303 32.2361 0.505859 31.7959V1.65938C0.509363 1.22008 0.685544 0.799791 0.996343 0.489305C1.30714 0.178819 1.72761 0.00306123 2.16691 0H28.9546C29.8712 0 30.6156 0.742707 30.6156 1.65938V1.65938ZM27.2701 3.34553H3.85139V30.1097H27.2701V3.34553ZM14.3781 18.6028L21.4756 11.5069L23.8409 13.8722L14.3781 23.3351L7.87104 16.828L10.238 14.4627L14.3781 18.6028V18.6028Z" fill="#00054A"/>
</svg>
