<svg width="30" height="33" viewBox="0 0 30 33" fill="none" xmlns="http://www.w3.org/2000/svg">
<path d="M28.3333 33H1.66667C1.22464 33 0.800716 32.8262 0.488155 32.5167C0.175595 32.2073 0 31.7876 0 31.35V1.65C0 1.21239 0.175595 0.792709 0.488155 0.483274C0.800716 0.173839 1.22464 0 1.66667 0H28.3333C28.7754 0 29.1993 0.173839 29.5118 0.483274C29.8244 0.792709 30 1.21239 30 1.65V31.35C30 31.7876 29.8244 32.2073 29.5118 32.5167C29.1993 32.8262 28.7754 33 28.3333 33ZM26.6667 29.7V3.3H3.33333V29.7H26.6667ZM6.66667 6.6H13.3333V13.2H6.66667V6.6ZM6.66667 16.5H23.3333V19.8H6.66667V16.5ZM6.66667 23.1H23.3333V26.4H6.66667V23.1ZM16.6667 8.25H23.3333V11.55H16.6667V8.25Z" fill="#00054A"/>
</svg>
