<svg width="30" height="30" viewBox="0 0 30 30" fill="none" xmlns="http://www.w3.org/2000/svg">
<path d="M12.5581 0.06C13.0186 0.0195349 13.4833 0 13.9535 0C22.8153 0 30 7.18465 30 16.0465C30 16.5167 29.9805 16.9814 29.94 17.4419H27.8386C27.1381 24.4926 21.1884 30 13.9535 30C6.24698 30 0 23.753 0 16.0465C0 8.81163 5.50744 2.86186 12.5581 2.16279V0.0586046V0.06ZM12.5581 17.4419V4.97023C9.74332 5.32839 7.17049 6.74493 5.36259 8.93193C3.55468 11.1189 2.64737 13.9123 2.82505 16.7442C3.00274 19.5762 4.25209 22.2342 6.31918 24.1781C8.38627 26.1219 11.116 27.2058 13.9535 27.2093C16.6725 27.2093 19.298 26.2169 21.3373 24.4186C23.3766 22.6202 24.6896 20.1395 25.0298 17.4419H12.5581ZM27.1367 14.6512C26.8169 11.6343 25.4721 8.81832 23.3269 6.6731C21.1817 4.52788 18.3657 3.18315 15.3488 2.86326V14.6512H27.1367Z" fill="#00054A"/>
</svg>
