<svg width="30" height="28" viewBox="0 0 30 28" fill="none" xmlns="http://www.w3.org/2000/svg">
<path d="M16.5003 8.84164V20.6305C16.5003 21.803 16.0262 22.9274 15.1823 23.7565C14.3384 24.5855 13.1939 25.0513 12.0004 25.0513H8.74552C8.39167 26.0349 7.69525 26.864 6.77936 27.3919C5.86347 27.9199 4.78708 28.1127 3.74046 27.9363C2.69384 27.76 1.74437 27.2258 1.0599 26.4282C0.375418 25.6306 0 24.6209 0 23.5777C0 22.5345 0.375418 21.5248 1.0599 20.7272C1.74437 19.9296 2.69384 19.3954 3.74046 19.219C4.78708 19.0427 5.86347 19.2355 6.77936 19.7635C7.69525 20.2914 8.39167 21.1205 8.74552 22.1041H12.0004C12.3983 22.1041 12.7798 21.9488 13.0611 21.6725C13.3424 21.3961 13.5004 21.0213 13.5004 20.6305V8.84164C13.5004 7.66916 13.9745 6.54471 14.8184 5.71565C15.6623 4.88658 16.8068 4.42082 18.0003 4.42082H22.5002V0L30 5.89442L22.5002 11.7888V7.36803H18.0003C17.6025 7.36803 17.221 7.52329 16.9397 7.79964C16.6584 8.07599 16.5003 8.45081 16.5003 8.84164ZM4.50062 25.0513C4.89844 25.0513 5.27996 24.8961 5.56126 24.6197C5.84255 24.3433 6.00059 23.9685 6.00059 23.5777C6.00059 23.1869 5.84255 22.8121 5.56126 22.5357C5.27996 22.2593 4.89844 22.1041 4.50062 22.1041C4.10281 22.1041 3.72129 22.2593 3.43999 22.5357C3.15869 22.8121 3.00066 23.1869 3.00066 23.5777C3.00066 23.9685 3.15869 24.3433 3.43999 24.6197C3.72129 24.8961 4.10281 25.0513 4.50062 25.0513Z" fill="#00054A"/>
</svg>
