<svg width="13" height="14" viewBox="0 0 13 14" fill="none" xmlns="http://www.w3.org/2000/svg">
<path d="M5.60448 0.571289C8.66905 0.571289 11.1562 3.05847 11.1562 6.12304C11.1562 9.1876 8.66905 11.6748 5.60448 11.6748C2.53992 11.6748 0.0527344 9.1876 0.0527344 6.12304C0.0527344 3.05847 2.53992 0.571289 5.60448 0.571289ZM5.60448 10.4411C7.98988 10.4411 9.92251 8.50844 9.92251 6.12304C9.92251 3.73702 7.98988 1.80501 5.60448 1.80501C3.21846 1.80501 1.28646 3.73702 1.28646 6.12304C1.28646 8.50844 3.21846 10.4411 5.60448 10.4411ZM10.8385 10.4849L12.5836 12.2293L11.7108 13.1022L9.9663 11.3571L10.8385 10.4849Z" fill="#CFCFCF"/>
</svg>
