<svg width="31" height="30" viewBox="0 0 31 30" fill="none" xmlns="http://www.w3.org/2000/svg">
<path d="M0 14.638C0 13.3243 0.167066 12.0515 0.479934 10.835C1.31901 10.8791 2.15394 10.6903 2.89243 10.2895C3.63091 9.88875 4.2442 9.29158 4.66449 8.56401C5.08477 7.83645 5.29569 7.00684 5.27392 6.16689C5.25216 5.32694 4.99856 4.50936 4.54115 3.80454C6.37727 1.99806 8.64306 0.68876 11.1251 0C11.5063 0.749476 12.0874 1.37885 12.8042 1.81845C13.521 2.25805 14.3454 2.49073 15.1863 2.49073C16.0271 2.49073 16.8516 2.25805 17.5684 1.81845C18.2851 1.37885 18.8663 0.749476 19.2475 0C21.7295 0.68876 23.9953 1.99806 25.8314 3.80454C25.3735 4.50949 25.1195 5.32738 25.0976 6.16771C25.0757 7.00805 25.2866 7.83807 25.7072 8.56594C26.1277 9.29381 26.7414 9.89115 27.4803 10.2919C28.2193 10.6926 29.0547 10.8811 29.8941 10.8365C30.207 12.0515 30.3741 13.3243 30.3741 14.638C30.3741 15.9517 30.207 17.2245 29.8941 18.441C29.0549 18.3966 28.2198 18.5852 27.4811 18.9858C26.7424 19.3865 26.1289 19.9836 25.7084 20.7113C25.2879 21.4389 25.0769 22.2686 25.0986 23.1087C25.1203 23.9488 25.3739 24.7665 25.8314 25.4715C23.9953 27.2779 21.7295 28.5872 19.2475 29.276C18.8663 28.5265 18.2851 27.8971 17.5684 27.4575C16.8516 27.0179 16.0271 26.7853 15.1863 26.7853C14.3454 26.7853 13.521 27.0179 12.8042 27.4575C12.0874 27.8971 11.5063 28.5265 11.1251 29.276C8.64306 28.5872 6.37727 27.2779 4.54115 25.4715C4.99907 24.7665 5.25305 23.9486 5.27498 23.1083C5.29691 22.268 5.08594 21.4379 4.66541 20.7101C4.24488 19.9822 3.63118 19.3848 2.89222 18.9841C2.15326 18.5834 1.31785 18.3949 0.478416 18.4395C0.167066 17.226 0 15.9533 0 14.638ZM7.29622 19.1943C8.25305 20.8513 8.52643 22.7574 8.15281 24.5465C8.77247 24.987 9.43162 25.3682 10.1227 25.6856C11.5149 24.4384 13.3187 23.7494 15.1878 23.7507C17.1015 23.7507 18.8906 24.466 20.2529 25.6856C20.944 25.3682 21.6031 24.987 22.2228 24.5465C21.8392 22.7179 22.1442 20.8119 23.0794 19.1943C24.0129 17.5759 25.511 16.359 27.2864 15.7771C27.3566 15.0193 27.3566 14.2567 27.2864 13.4989C25.5104 12.9173 24.0117 11.7004 23.0779 10.0817C22.1427 8.46405 21.8377 6.55814 22.2213 4.72948C21.6018 4.28892 20.9423 3.90755 20.2514 3.5904C18.8596 4.83721 17.0564 5.52625 15.1878 5.52532C13.3187 5.52662 11.5149 4.83756 10.1227 3.5904C9.43182 3.90755 8.7723 4.28892 8.15281 4.72948C8.5364 6.55814 8.23137 8.46405 7.29622 10.0817C6.36273 11.7001 4.86463 12.917 3.0892 13.4989C3.01896 14.2567 3.01896 15.0193 3.0892 15.7771C4.86519 16.3587 6.36388 17.5756 7.29774 19.1943H7.29622ZM15.1878 19.1943C13.9794 19.1943 12.8205 18.7143 11.966 17.8598C11.1115 17.0053 10.6315 15.8464 10.6315 14.638C10.6315 13.4296 11.1115 12.2707 11.966 11.4162C12.8205 10.5617 13.9794 10.0817 15.1878 10.0817C16.3962 10.0817 17.5551 10.5617 18.4096 11.4162C19.2641 12.2707 19.7441 13.4296 19.7441 14.638C19.7441 15.8464 19.2641 17.0053 18.4096 17.8598C17.5551 18.7143 16.3962 19.1943 15.1878 19.1943ZM15.1878 16.1568C15.5906 16.1568 15.9769 15.9968 16.2617 15.7119C16.5466 15.4271 16.7066 15.0408 16.7066 14.638C16.7066 14.2352 16.5466 13.8489 16.2617 13.5641C15.9769 13.2792 15.5906 13.1192 15.1878 13.1192C14.785 13.1192 14.3987 13.2792 14.1139 13.5641C13.829 13.8489 13.669 14.2352 13.669 14.638C13.669 15.0408 13.829 15.4271 14.1139 15.7119C14.3987 15.9968 14.785 16.1568 15.1878 16.1568V16.1568Z" fill="#00054A"/>
</svg>
